#!OML:ASF I:\Actors\actors\Patient Classification 2\Patient 1\Session 1\actor1.ASF
:FULLY-SPECIFIED
:DEGREES
348
root -1.01512 18.262 4.29645 13.5423 7.25362 -2.19198
lowerback 27.8213 1.65707 -4.60472
upperback 5.90636 0.837101 -0.146368
thorax -8.8252 0.506034 2.20142
lowerneck -33.4659 -5.58401 -5.83916
upperneck 13.8603 -5.46922 2.60404
head 9.92219 -2.5213 0.903121
rclavicle 1.90833e-014 3.97569e-016
rhumerus 13.7977 17.6122 -84.7941
rradius 58.1442
rwrist -42.2278
rhand -25.8114 -63.3179
rfingers 7.12502
rthumb 0.727868 453.296
lclavicle 1.90833e-014 3.97569e-016
lhumerus 15.3653 -28.4209 95.9768
lradius 50.037
lwrist 52.4185
lhand -7.39977 -34.0172
lfingers 7.12502
lthumb 18.4863 -4.87562
rfemur 0.570259 -5.71383 18.4915
rtibia -22.3191
rfoot -1.53569 -21.0265
rtoes 3.02359
lfemur -2.94624 -1.05518 -9.30162
ltibia -21.6896
lfoot 10.7649 10.7865
ltoes -18.7672
349
root -0.995357 18.2626 4.25627 13.9436 7.51668 -2.18104
lowerback 29.1065 1.74942 -4.19319
upperback 6.61898 1.03003 -0.114236
thorax -8.66008 0.575336 1.92633
lowerneck -32.8582 -5.41787 -5.28138
upperneck 12.3452 -5.55484 2.84977
head 9.2773 -2.50679 0.91216
rclavicle 2.8625e-014 -1.59028e-014
rhumerus 12.3073 22.615 -80.1366
rradius 60.34
rwrist -46.2008
rhand -26.559 -64.736
rfingers 7.12502
rthumb 0.00588239 454.716
lclavicle 2.8625e-014 -1.59028e-014
lhumerus 12.7439 -31.8525 93.5447
lradius 56.8079
lwrist 57.1898
lhand -14.2221 -26.2786
lfingers 7.12502
lthumb 11.9149 3.3623
rfemur 0.239111 -6.07186 18.4953
rtibia -22.7971
rfoot -0.903908 -21.2618
rtoes 2.37753
lfemur -3.44331 -0.87459 -9.39203
ltibia -22.0672
lfoot 11.4525 10.6508
ltoes -18.3145
350
root -0.978452 18.2601 4.22145 14.5684 7.74656 -2.11398
lowerback 29.985 1.75501 -3.50945
upperback 7.29212 1.19722 -0.283305
thorax -8.31721 0.629075 1.27764
lowerneck -31.127 -5.24429 -4.66829
upperneck 9.99402 -5.69297 3.20042
head 8.19425 -2.52901 0.962578
rclavicle 5.96354e-015 1.31198e-014
rhumerus 11.0458 20.3213 -82.2304
rradius 61.7039
rwrist -44.095
rhand -16.1717 -64.0946
rfingers 7.12502
rthumb 10.0345 453.835
lclavicle 5.96354e-015 1.31198e-014
lhumerus 10.8618 -32.3343 93.6235
lradius 61.7925
lwrist 57.8146
lhand -17.6324 -19.3463
lfingers 7.12502
lthumb 8.62505 10.4575
rfemur -0.273273 -6.42664 18.4834
rtibia -23.3639
rfoot -0.334006 -21.5135
rtoes 2.17588
lfemur -4.14916 -0.709728 -9.50778
ltibia -22.4322
lfoot 12.0521 10.4739
ltoes -17.955
351
root -0.958066 18.2516 4.18536 15.4359 7.76696 -1.88263
lowerback 30.561 1.8319 -3.05723
upperback 7.7523 1.40502 -0.381436
thorax -8.06714 0.713659 0.827601
lowerneck -28.9143 -5.08827 -4.272
upperneck 7.68869 -5.70971 3.31055
head 7.08049 -2.54972 0.988996
rclavicle 8.34896e-015 3.77691e-015
rhumerus 10.0519 17.0993 -84.8225
rradius 63.4928
rwrist -42.3054
rhand -12.3843 -63.8385
rfingers 7.12502
rthumb 13.6867 453.368
lclavicle 8.34896e-015 3.77691e-015
lhumerus 10.1471 -31.2837 95.0666
lradius 64.629
lwrist 57.2573
lhand -19.5227 -13.8315
lfingers 7.12502
lthumb 6.80056 16.0393
rfemur -1.05048 -6.79458 18.3159
rtibia -23.9824
rfoot 0.27707 -21.6676
rtoes 2.20338
lfemur -5.07694 -0.589319 -9.80985
ltibia -22.7594
lfoot 12.4884 10.3574
ltoes -17.6558
352
root -0.931817 18.2359 4.1405 16.4859 7.58157 -1.57237
lowerback 30.9886 1.936 -2.73768
upperback 7.97607 1.61625 -0.399419
thorax -8.01422 0.80635 0.540832
lowerneck -27.3258 -4.9934 -4.01867
upperneck 6.39824 -5.67144 3.0006
head 6.40271 -2.58081 0.888667
rclavicle 1.25234e-014 -1.25234e-014
rhumerus 9.05203 13.4604 -87.7008
rradius 66.1264
rwrist -40.4967
rhand -10.5957 -66.5489
rfingers 7.12502
rthumb 15.4099 455.955
lclavicle 1.25234e-014 -1.25234e-014
lhumerus 11.2426 -30.6228 95.9096
lradius 65.5902
lwrist 57.32
lhand -20.8663 -10.8921
lfingers 7.12502
lthumb 5.50343 19.0165
rfemur -2.0967 -7.1193 18.0575
rtibia -24.6098
rfoot 0.966581 -21.7714
rtoes 2.2258
lfemur -6.24938 -0.412566 -10.2571
ltibia -22.9851
lfoot 12.8269 10.4044
ltoes -17.2419
353
root -0.910422 18.218 4.0942 17.505 7.53493 -1.32191
lowerback 31.627 1.91488 -2.57033
upperback 7.81318 1.62407 -0.303399
thorax -8.50005 0.811039 0.533523
lowerneck -26.5965 -4.83622 -4.28095
upperneck 6.54541 -5.40747 2.96064
head 6.34413 -2.4723 0.96017
rclavicle 1.82882e-014 -1.77912e-014
rhumerus 7.75295 10.7942 -90.3136
rradius 68.5614
rwrist -37.9457
rhand -10.8128 -64.7827
rfingers 7.12502
rthumb 15.2008 454.204
lclavicle 1.82882e-014 -1.77912e-014
lhumerus 12.8024 -30.3363 95.8593
lradius 65.4701
lwrist 58.5766
lhand -22.1293 -8.75055
lfingers 7.12502
lthumb 4.28389 21.1861
rfemur -3.0299 -7.36443 17.8911
rtibia -25.3535
rfoot 1.58546 -22.0673
rtoes 2.24639
lfemur -7.3797 -0.226879 -10.6352
ltibia -23.3419
lfoot 13.2521 10.4005
ltoes -17.0306
354
root -0.895205 18.206 4.05133 18.2154 7.82529 -1.0441
lowerback 32.9931 1.78946 -2.67688
upperback 6.91658 1.405 -0.010755
thorax -9.32323 0.718187 0.896426
lowerneck -25.8694 -4.48805 -4.15692
upperneck 7.11554 -4.97029 2.51796
head 6.39654 -2.30477 0.857197
rclavicle -1.18277e-014 -8.54774e-015
rhumerus 8.94039 9.92407 -91.6946
rradius 67.3067
rwrist -36.576
rhand -4.15011 -65.1167
rfingers 7.12502
rthumb 21.6098 453.931
lclavicle -1.18277e-014 -8.54774e-015
lhumerus 13.4058 -29.7602 95.7417
lradius 66.2985
lwrist 59.9758
lhand -23.1396 -6.84156
lfingers 7.12502
lthumb 3.30832 23.1125
rfemur -3.68574 -7.58247 17.678
rtibia -25.7515
rfoot 1.81379 -22.4766
rtoes 2.04109
lfemur -8.34113 -0.569109 -10.8645
ltibia -23.4609
lfoot 13.4998 10.4311
ltoes -16.8643
355
root -0.825648 18.165 3.97909 20.6169 7.97404 -0.826108
lowerback 31.3596 1.22568 -1.71714
upperback 6.80204 1.02513 -0.230744
thorax -9.50773 0.528945 0.339679
lowerneck -25.8049 -4.20358 -3.90275
upperneck 7.92037 -4.64258 2.17746
head 6.62864 -2.17008 0.741589
rclavicle 7.65321e-015 -1.51076e-014
rhumerus 10.8371 9.90401 -91.7639
rradius 65.9834
rwrist -34.2443
rhand -7.56118 -61.7459
rfingers 7.12502
rthumb 18.331 450.902
lclavicle 7.65321e-015 -1.51076e-014
lhumerus 14.2469 -29.4831 95.0457
lradius 67.2705
lwrist 61.1951
lhand -23.8931 -5.59056
lfingers 7.12502
lthumb 2.58061 24.3736
rfemur -6.60306 -8.41202 17.7653
rtibia -25.974
rfoot 2.81752 -22.5359
rtoes 1.54068
lfemur -11.2891 -1.3612 -10.8662
ltibia -23.5579
lfoot 13.8344 11.3259
ltoes -16.2592
356
root -0.850884 18.1973 4.01915 19.7617 7.52208 -1.10142
lowerback 33.409 1.58709 -2.16038
upperback 6.35359 1.29724 -0.0289566
thorax -10.0991 0.663841 0.629156
lowerneck -25.9015 -3.99689 -3.58474
upperneck 8.63664 -4.43171 1.86454
head 6.86047 -2.0862 0.608582
rclavicle -1.63997e-014 9.14409e-015
rhumerus 12.9123 11.6359 -90.134
rradius 65.1583
rwrist -35.5974
rhand -9.4754 -64.7742
rfingers 7.12502
rthumb 16.4888 454.093
lclavicle -1.63997e-014 9.14409e-015
lhumerus 15.0725 -29.5509 94.1567
lradius 67.9569
lwrist 61.3626
lhand -24.8116 -5.01949
lfingers 7.12502
lthumb 1.69355 24.9535
rfemur -5.53662 -7.27764 17.7084
rtibia -25.8833
rfoot 2.10725 -22.7311
rtoes 1.81045
lfemur -10.0654 -0.965449 -10.6618
ltibia -23.4649
lfoot 13.3196 11.1739
ltoes -15.882
357
root -0.829286 18.2037 4.02674 20.1416 7.27185 -1.16966
lowerback 33.7731 1.48295 -1.80265
upperback 6.01903 1.25402 -0.180555
thorax -10.6043 0.636786 0.284385
lowerneck -25.7185 -3.87609 -3.36361
upperneck 9.27144 -4.38193 1.98828
head 7.04256 -2.04178 0.618764
rclavicle -1.22253e-014 2.98177e-016
rhumerus 14.6607 13.6355 -87.9608
rradius 64.4608
rwrist -37.389
rhand -9.05079 -64.8935
rfingers 7.12502
rthumb 16.8975 454.178
lclavicle -1.22253e-014 2.98177e-016
lhumerus 15.6862 -29.957 93.0586
lradius 68.3717
lwrist 60.7855
lhand -25.9758 -4.60283
lfingers 7.12502
lthumb 0.569076 25.3762
rfemur -6.08631 -6.98838 17.677
rtibia -25.6584
rfoot 1.8555 -22.7699
rtoes 2.32544
lfemur -10.4312 -1.08899 -10.5835
ltibia -23.3592
lfoot 13.1408 11.4645
ltoes -15.9325
358
root -0.808509 18.2152 4.04158 20.3058 6.91259 -1.09244
lowerback 33.9693 1.45665 -1.61036
upperback 5.84408 1.25029 -0.399809
thorax -10.8685 0.628913 -0.0553193
lowerneck -25.4199 -3.84446 -3.28873
upperneck 9.61853 -4.43884 2.33194
head 7.12263 -2.03286 0.714775
rclavicle 1.0138e-014 -1.33186e-014
rhumerus 16.0394 14.7632 -86.5244
rradius 63.8069
rwrist -38.4081
rhand -8.9912 -63.2729
rfingers 7.12502
rthumb 16.9549 452.553
lclavicle 1.0138e-014 -1.33186e-014
lhumerus 16.3631 -30.4419 91.9893
lradius 68.4656
lwrist 60.7355
lhand -26.6762 -4.81123
lfingers 7.12502
lthumb -0.107308 25.1685
rfemur -6.48614 -6.61179 17.4168
rtibia -25.1529
rfoot 1.40702 -22.7825
rtoes 2.95082
lfemur -10.632 -1.24665 -10.6932
ltibia -22.9819
lfoot 12.8449 11.7768
ltoes -16.2733
359
root -0.79015 18.2311 4.06552 20.1922 6.56927 -0.981192
lowerback 34.1636 1.4938 -1.603
upperback 5.79409 1.27562 -0.527338
thorax -10.9969 0.639025 -0.208826
lowerneck -25.186 -3.84815 -3.31657
upperneck 9.8387 -4.4954 2.61844
head 7.17069 -2.03334 0.808152
rclavicle -2.18663e-015 2.65378e-014
rhumerus 16.723 14.8898 -86.3347
rradius 63.3826
rwrist -38.2541
rhand -8.82494 -62.9443
rfingers 7.12502
rthumb 17.1149 452.21
lclavicle -2.18663e-015 2.65378e-014
lhumerus 16.817 -30.5774 91.5058
lradius 68.3658
lwrist 61.3419
lhand -26.5863 -5.64795
lfingers 7.12502
lthumb -0.020537 24.3318
rfemur -6.45118 -6.20903 17.0857
rtibia -24.8118
rfoot 1.05785 -22.8345
rtoes 3.21335
lfemur -10.4299 -1.45017 -10.844
ltibia -22.7331
lfoot 12.5641 12.1102
ltoes -16.2119
360
root -0.776659 18.2472 4.09519 19.908 6.3104 -0.901417
lowerback 33.9968 1.6081 -1.8295
upperback 6.04205 1.35904 -0.425876
thorax -10.6608 0.682383 -0.00609366
lowerneck -25.3542 -3.84123 -3.35435
upperneck 10.1386 -4.51495 2.85691
head 7.30509 -2.01676 0.886806
rclavicle -5.26779e-015 -4.37326e-015
rhumerus 17.0893 14.7932 -86.5212
rradius 63.2261
rwrist -37.0033
rhand -9.04957 -63.1407
rfingers 7.12502
rthumb 16.8987 452.425
lclavicle -5.26779e-015 -4.37326e-015
lhumerus 16.6953 -29.9527 92.1218
lradius 68.6292
lwrist 61.5703
lhand -26.1052 -5.85481
lfingers 7.12502
lthumb 0.444153 24.1245
rfemur -6.20013 -5.88653 16.8192
rtibia -24.4898
rfoot 0.800535 -22.8324
rtoes 3.00806
lfemur -10.0664 -1.6115 -10.966
ltibia -22.4604
lfoot 12.2356 12.3396
ltoes -15.8982
361
root -0.764989 18.2598 4.12589 19.5713 6.13055 -0.839692
lowerback 33.8956 1.67185 -1.92758
upperback 6.17178 1.4162 -0.365315
thorax -10.4804 0.710175 0.0921404
lowerneck -25.4348 -3.92186 -3.44521
upperneck 10.4084 -4.62667 3.03029
head 7.41855 -2.05384 0.941051
rclavicle 1.10325e-014 -1.07344e-014
rhumerus 16.9061 15.0822 -86.5922
rradius 63.1467
rwrist -35.0236
rhand -10.1545 -62.5115
rfingers 7.12502
rthumb 15.8348 451.884
lclavicle 1.10325e-014 -1.07344e-014
lhumerus 16.4736 -29.6314 92.5695
lradius 68.906
lwrist 62.2347
lhand -26.4476 -5.59166
lfingers 7.12502
lthumb 0.113458 24.3881
rfemur -5.86999 -5.61694 16.5952
rtibia -24.1775
rfoot 0.532383 -22.8471
rtoes 2.94913
lfemur -9.67306 -1.67866 -11.0954
ltibia -22.1846
lfoot 11.9373 12.4079
ltoes -15.8883
